# xmcd
#
# Track frame offsets:
#	150
#	1432
#	51637
#	89830
#	91591
#	100759
#	101533
#	111367
#	117883
#	125806
#	129862
#	137062
#	199143
#	205463
#
# Disc length: 2752 seconds
# Revision: 0
# Processed by: cddbd v1.5.2PL0 Copyright (c) Steve Scherf et al.
# Submitted via: dBpowerAMP V12.0
#
DISCID=ca0abe0e
DTITLE=Hale Dwoskin - The Inner Circle Retreat 01 CD 11
DYEAR=2006
DGENRE=Speech
TTITLE0=Intro Music
TTITLE1=Responding Naturally to Life
TTITLE2=Protecting Yourself with Fear
TTITLE3=Problems Are Only in the Past
TTITLE4=Partnership Release Demonstration
TTITLE5=I Am Is the Most Intimate Expression
TTITLE6=Resistance
TTITLE7=I Am vs Presence
TTITLE8=Guilt
TTITLE9=Participant Gain
TTITLE10=Insomnia
TTITLE11=Waves of Desperation - Looking Inside
TTITLE12=Participant Gain
TTITLE13=Concluding Music
EXTD=
EXTT0=
EXTT1=
EXTT2=
EXTT3=
EXTT4=
EXTT5=
EXTT6=
EXTT7=
EXTT8=
EXTT9=
EXTT10=
EXTT11=
EXTT12=
EXTT13=
PLAYORDER=
